<svg width="15" height="10" viewBox="0 0 15 10" fill="none" xmlns="http://www.w3.org/2000/svg">
<path d="M14.9084 4.77906L10.2209 0.0915601C10.0989 -0.03052 9.90111 -0.03052 9.77906 0.0915601C9.65698 0.21364 9.65698 0.411394 9.77906 0.533445L13.9331 4.68751H0.31251C0.139775 4.68751 0 4.82728 0 5.00002C0 5.17275 0.139775 5.31253 0.31251 5.31253H13.9331L9.77906 9.46656C9.65698 9.58864 9.65698 9.78639 9.77906 9.90845C9.84009 9.96947 9.92007 10 10 10C10.08 10 10.1599 9.96947 10.221 9.90845L14.9085 5.22095C15.0305 5.09889 15.0305 4.90114 14.9084 4.77906Z" fill="#0F47C0"/>
</svg>
