<?xml version="1.0" encoding="utf-8"?><svg viewBox="0 0 448 512" xmlns="http://www.w3.org/2000/svg" xmlns:xlink="http://www.w3.org/1999/xlink"><style>:root>svg{display:none}:root>svg:target{display:block}</style><svg fill="none" viewBox="0 0 20 20" id="close" xmlns="http://www.w3.org/2000/svg"><path d="M12.396 7.594l-4.792 4.792M12.396 12.389L7.6 7.592" stroke="currentColor" stroke-width="1.5" stroke-linecap="round" stroke-linejoin="round"/><path clip-rule="evenodd" d="M14.334.75H5.665C2.644.75.75 2.889.75 5.916v8.168c0 3.027 1.885 5.166 4.915 5.166h8.668c3.031 0 4.917-2.139 4.917-5.166V5.916c0-3.027-1.886-5.166-4.916-5.166z" stroke="currentColor" stroke-width="1.5" stroke-linecap="round" stroke-linejoin="round"/></svg><svg fill="none" viewBox="0 0 24 24" id="edit" xmlns="http://www.w3.org/2000/svg"><path d="M16 2.012l3 3-2.287 2.287-3-3L16 2.011zM4 14v3h3l8.299-8.287-3-3L4 14zm0 6h16v2H4v-2z" fill="#092C9E"/></svg><svg aria-hidden="true" data-prefix="fab" data-icon="facebook-f" class="csvg-inline--fa cfa-facebook-f cfa-w-10" viewBox="0 0 320 512" id="fb" xmlns="http://www.w3.org/2000/svg"><path fill="currentColor" d="M279.14 288l14.22-92.66h-88.91v-60.13c0-25.35 12.42-50.06 52.24-50.06h40.42V6.26S260.43 0 225.36 0c-73.22 0-121.08 44.38-121.08 124.72v70.62H22.89V288h81.39v224h100.17V288z"/></svg><svg aria-hidden="true" data-prefix="fab" data-icon="instagram" class="dsvg-inline--fa dfa-instagram dfa-w-14" viewBox="0 0 448 512" id="inst" xmlns="http://www.w3.org/2000/svg"><path fill="currentColor" d="M224.1 141c-63.6 0-114.9 51.3-114.9 114.9s51.3 114.9 114.9 114.9S339 319.5 339 255.9 287.7 141 224.1 141zm0 189.6c-41.1 0-74.7-33.5-74.7-74.7s33.5-74.7 74.7-74.7 74.7 33.5 74.7 74.7-33.6 74.7-74.7 74.7zm146.4-194.3c0 14.9-12 26.8-26.8 26.8-14.9 0-26.8-12-26.8-26.8s12-26.8 26.8-26.8 26.8 12 26.8 26.8zm76.1 27.2c-1.7-35.9-9.9-67.7-36.2-93.9-26.2-26.2-58-34.4-93.9-36.2-37-2.1-147.9-2.1-184.9 0-35.8 1.7-67.6 9.9-93.9 36.1s-34.4 58-36.2 93.9c-2.1 37-2.1 147.9 0 184.9 1.7 35.9 9.9 67.7 36.2 93.9s58 34.4 93.9 36.2c37 2.1 147.9 2.1 184.9 0 35.9-1.7 67.7-9.9 93.9-36.2 26.2-26.2 34.4-58 36.2-93.9 2.1-37 2.1-147.8 0-184.8zM398.8 388c-7.8 19.6-22.9 34.7-42.6 42.6-29.5 11.7-99.5 9-132.1 9s-102.7 2.6-132.1-9c-19.6-7.8-34.7-22.9-42.6-42.6-11.7-29.5-9-99.5-9-132.1s-2.6-102.7 9-132.1c7.8-19.6 22.9-34.7 42.6-42.6 29.5-11.7 99.5-9 132.1-9s102.7-2.6 132.1 9c19.6 7.8 34.7 22.9 42.6 42.6 11.7 29.5 9 99.5 9 132.1s2.7 102.7-9 132.1z"/></svg><svg aria-hidden="true" data-prefix="fab" data-icon="linkedin-in" class="esvg-inline--fa efa-linkedin-in efa-w-14" viewBox="0 0 448 512" id="linkedin" xmlns="http://www.w3.org/2000/svg"><path fill="currentColor" d="M100.28 448H7.4V148.9h92.88zM53.79 108.1C24.09 108.1 0 83.5 0 53.8a53.79 53.79 0 01107.58 0c0 29.7-24.1 54.3-53.79 54.3zM447.9 448h-92.68V302.4c0-34.7-.7-79.2-48.29-79.2-48.29 0-55.69 37.7-55.69 76.7V448h-92.78V148.9h89.08v40.8h1.3c12.4-23.5 42.69-48.3 87.88-48.3 94 0 111.28 61.9 111.28 142.3V448z"/></svg><svg fill="none" viewBox="0 0 20 20" id="mess" xmlns="http://www.w3.org/2000/svg"><path d="M17.5 9.583a6.983 6.983 0 01-.75 3.167 7.084 7.084 0 01-6.333 3.917 6.983 6.983 0 01-3.167-.75L2.5 17.5l1.583-4.75a6.983 6.983 0 01-.75-3.167A7.083 7.083 0 017.25 3.25a6.983 6.983 0 013.167-.75h.416A7.066 7.066 0 0117.5 9.167v.416z" fill="#F1F6FA" stroke="#092C9E" stroke-width="1.5" stroke-linecap="round" stroke-linejoin="round"/></svg><svg fill="none" viewBox="0 0 20 20" id="notific" xmlns="http://www.w3.org/2000/svg"><path d="M15 6.666a5 5 0 00-10 0c0 5.833-2.5 7.5-2.5 7.5h15s-2.5-1.667-2.5-7.5zM11.442 17.5a1.666 1.666 0 01-2.883 0" stroke="#092C9E" stroke-width="1.5" stroke-linecap="round" stroke-linejoin="round"/></svg><svg fill="none" viewBox="0 0 18 18" id="search" xmlns="http://www.w3.org/2000/svg"><path d="M12.5 11h-.79l-.28-.27A6.471 6.471 0 0013 6.5 6.5 6.5 0 106.5 13c1.61 0 3.09-.59 4.23-1.57l.27.28v.79l5 4.99L17.49 16l-4.99-5zm-6 0C4.01 11 2 8.99 2 6.5S4.01 2 6.5 2 11 4.01 11 6.5 8.99 11 6.5 11z" fill="currentColor"/></svg><svg fill="none" viewBox="0 0 20 20" id="settings" xmlns="http://www.w3.org/2000/svg"><path d="M16.165 12.5a1.374 1.374 0 00.275 1.517l.05.05a1.667 1.667 0 11-2.358 2.359l-.05-.05a1.376 1.376 0 00-1.517-.275 1.376 1.376 0 00-.833 1.258v.142a1.667 1.667 0 01-3.333 0v-.075a1.375 1.375 0 00-.9-1.259 1.375 1.375 0 00-1.517.275l-.05.05a1.667 1.667 0 11-2.358-2.358l.05-.05a1.375 1.375 0 00.275-1.517 1.374 1.374 0 00-1.259-.833H2.5a1.667 1.667 0 110-3.333h.075a1.375 1.375 0 001.258-.9 1.375 1.375 0 00-.275-1.517l-.05-.05a1.667 1.667 0 112.358-2.358l.05.05a1.375 1.375 0 001.517.275h.067a1.375 1.375 0 00.833-1.259v-.141a1.667 1.667 0 013.333 0v.075a1.374 1.374 0 00.834 1.258 1.375 1.375 0 001.516-.275l.05-.05a1.667 1.667 0 112.359 2.358l-.05.05a1.375 1.375 0 00-.275 1.517v.067a1.375 1.375 0 001.258.833h.142a1.667 1.667 0 010 3.333h-.075a1.375 1.375 0 00-1.259.834v0z" stroke="#092C9E" stroke-width="1.5" stroke-linecap="round" stroke-linejoin="round"/><path d="M10 12.5a2.5 2.5 0 100-5 2.5 2.5 0 000 5z" fill="#F4F7FF" stroke="#092C9E" stroke-width="1.5" stroke-linecap="round" stroke-linejoin="round"/></svg><svg fill="none" viewBox="0 0 16 10" id="v" xmlns="http://www.w3.org/2000/svg"><path d="M15 1.5l-7 7-7-7" stroke="#092C9E" stroke-width="1.5" stroke-linecap="round" stroke-linejoin="round"/></svg></svg>